<?xml version="1.0" encoding="iso-8859-1"?>
<!-- Generator: Adobe Illustrator 19.0.0, SVG Export Plug-In . SVG Version: 6.00 Build 0)  -->
<svg version="1.1" id="Layer_1" xmlns="http://www.w3.org/2000/svg" xmlns:xlink="http://www.w3.org/1999/xlink" x="0px" y="0px"
	 viewBox="0 0 512 512" style="enable-background:new 0 0 512 512;" xml:space="preserve">
<rect x="8.609" y="7.91" style="fill:#FEC986;" width="495.417" height="503.41"/>
<rect x="296.272" y="167.726" style="fill:#C8546F;" width="167.8" height="335.61"/>
<polygon style="fill:#FFFFFF;" points="216.099,103.652 204.839,114.911 220.47,130.542 90.61,130.542 90.61,146.464 
	220.47,146.464 204.839,162.094 216.099,173.353 250.948,138.503 "/>
<g>
	<path style="fill:#1D1D1B;" d="M511.331,511.291H0V0.679h512L511.331,511.291z M15.922,495.369h479.507l0.627-478.767H15.922
		V495.369z"/>
	<polygon style="fill:#1D1D1B;" points="471.389,487.349 455.466,487.349 455.466,175.685 303.585,175.685 303.585,487.349 
		287.663,487.349 287.663,159.762 471.389,159.762 	"/>
	<rect x="327.617" y="311.557" style="fill:#1D1D1B;" width="15.922" height="47.947"/>
</g>
<g>
</g>
<g>
</g>
<g>
</g>
<g>
</g>
<g>
</g>
<g>
</g>
<g>
</g>
<g>
</g>
<g>
</g>
<g>
</g>
<g>
</g>
<g>
</g>
<g>
</g>
<g>
</g>
<g>
</g>
</svg>
