<svg xmlns="http://www.w3.org/2000/svg" xmlns:xlink="http://www.w3.org/1999/xlink" version="1.1" width="1000" height="1000" viewBox="0 0 1000 1000" xml:space="preserve">
<desc>Created with Fabric.js 3.5.0</desc>
<defs>
</defs>
<rect x="0" y="0" width="100%" height="100%" fill="#ffffff"/>
<g transform="matrix(1.7756 0 0 1.7756 500.0083 500.0073)" id="276635">
<path style="stroke: none; stroke-width: 1; stroke-dasharray: none; stroke-linecap: butt; stroke-dashoffset: 0; stroke-linejoin: miter; stroke-miterlimit: 4; is-custom-font: none; font-file-url: none; fill: rgb(255,255,255); fill-rule: nonzero; opacity: 1;" vector-effect="non-scaling-stroke" transform=" translate(-256.0003, -256.0004)" d="M 509.532 34.999 c -2.292 -2.233 -5.678 -2.924 -8.658 -1.764 L 5.213 225.734 c -2.946 1.144 -4.967 3.883 -5.192 7.034 c -0.225 3.151 1.386 6.149 4.138 7.7 l 102.719 57.875 l 35.651 174.259 c 0.222 1.232 0.723 2.379 1.442 3.364 c 0.072 0.099 0.131 0.175 0.191 0.251 c 1.256 1.571 3.037 2.668 5.113 3 c 0.265 0.042 0.531 0.072 0.795 0.088 c 0.171 0.011 0.341 0.016 0.511 0.016 c 1.559 0 3.036 -0.445 4.295 -1.228 c 0.426 -0.264 0.831 -0.569 1.207 -0.915 c 0.117 -0.108 0.219 -0.205 0.318 -0.306 l 77.323 -77.52 c 3.186 -3.195 3.18 -8.369 -0.015 -11.555 c -3.198 -3.188 -8.368 -3.18 -11.555 0.015 l -60.739 60.894 l 13.124 -112.394 l 185.495 101.814 c 1.868 1.02 3.944 1.239 5.846 0.78 c 0.209 -0.051 0.4 -0.105 0.589 -0.166 c 1.878 -0.609 3.526 -1.877 4.574 -3.697 c 0.053 -0.094 0.1 -0.179 0.146 -0.264 c 0.212 -0.404 0.382 -0.8 0.517 -1.202 L 511.521 43.608 C 512.6 40.596 511.824 37.23 509.532 34.999 z M 27.232 234.712 L 432.364 77.371 l -318.521 206.14 L 27.232 234.712 z M 162.72 316.936 c -0.764 0.613 -1.429 1.374 -1.949 2.267 c -0.068 0.117 -0.132 0.235 -0.194 0.354 c -0.496 0.959 -0.784 1.972 -0.879 2.986 L 148.365 419.6 l -25.107 -122.718 l 275.105 -178.042 L 162.72 316.936 z M 359.507 419.195 l -177.284 -97.307 L 485.928 66.574 L 359.507 419.195 z" stroke-linecap="round"/>
</g>
</svg>